<mxfile host="app.diagrams.net" modified="2020-08-02T10:48:05.205Z" agent="5.0 (Windows NT 10.0; Win64; x64) AppleWebKit/537.36 (KHTML, like Gecko) Chrome/84.0.4147.105 Safari/537.36" etag="lpaQTcHgtjUbdlHa_CRY" version="13.5.8" type="github">
  <diagram id="3CC6cZOWKc5HPjwIYp_i" name="Page-1">
    <mxGraphModel dx="4044" dy="1464" grid="0" gridSize="10" guides="1" tooltips="1" connect="1" arrows="1" fold="1" page="0" pageScale="1" pageWidth="850" pageHeight="1100" background="#9AC7BF" math="0" shadow="1">
      <root>
        <mxCell id="0" />
        <mxCell id="1" parent="0" />
        <mxCell id="9Z9RfsvURIoyUKrnc7gD-143" value="single page" style="rounded=0;whiteSpace=wrap;html=1;glass=0;sketch=0;fontSize=12;align=left;fillColor=#647687;strokeColor=#314354;fontColor=#ffffff;verticalAlign=top;fontStyle=1" vertex="1" parent="1">
          <mxGeometry x="350" y="1090" width="420" height="350" as="geometry" />
        </mxCell>
        <mxCell id="9Z9RfsvURIoyUKrnc7gD-97" value="home page" style="rounded=0;whiteSpace=wrap;html=1;glass=0;sketch=0;fontSize=12;align=left;fillColor=#647687;strokeColor=#314354;fontColor=#ffffff;verticalAlign=top;fontStyle=1" vertex="1" parent="1">
          <mxGeometry x="360" y="170" width="420" height="380" as="geometry" />
        </mxCell>
        <mxCell id="9Z9RfsvURIoyUKrnc7gD-37" value="template page" style="rounded=0;whiteSpace=wrap;html=1;align=left;verticalAlign=top;" vertex="1" parent="1">
          <mxGeometry x="-485" y="100" width="180" height="190" as="geometry" />
        </mxCell>
        <mxCell id="9Z9RfsvURIoyUKrnc7gD-51" style="edgeStyle=none;rounded=0;orthogonalLoop=1;jettySize=auto;html=1;exitX=1;exitY=0.5;exitDx=0;exitDy=0;startArrow=oval;startFill=0;endArrow=block;endFill=0;fontSize=12;" edge="1" parent="1" source="9Z9RfsvURIoyUKrnc7gD-38" target="9Z9RfsvURIoyUKrnc7gD-43">
          <mxGeometry relative="1" as="geometry" />
        </mxCell>
        <mxCell id="9Z9RfsvURIoyUKrnc7gD-38" value="content-primary" style="rounded=0;whiteSpace=wrap;html=1;align=left;verticalAlign=top;fillColor=#ffe6cc;strokeColor=#d79b00;" vertex="1" parent="1">
          <mxGeometry x="-675" y="140" width="120" height="40" as="geometry" />
        </mxCell>
        <mxCell id="9Z9RfsvURIoyUKrnc7gD-43" value="mount-point-primary" style="whiteSpace=wrap;html=1;rounded=0;align=left;verticalAlign=top;strokeColor=#d79b00;fillColor=#ffe6cc;" vertex="1" parent="1">
          <mxGeometry x="-460" y="140" width="130" height="40" as="geometry" />
        </mxCell>
        <mxCell id="9Z9RfsvURIoyUKrnc7gD-45" value="mount-point-secondary" style="whiteSpace=wrap;html=1;rounded=0;align=left;verticalAlign=top;strokeColor=#82b366;fillColor=#d5e8d4;" vertex="1" parent="1">
          <mxGeometry x="-460" y="200" width="130" height="50" as="geometry" />
        </mxCell>
        <mxCell id="9Z9RfsvURIoyUKrnc7gD-52" style="edgeStyle=none;rounded=0;orthogonalLoop=1;jettySize=auto;html=1;exitX=1;exitY=0.5;exitDx=0;exitDy=0;startArrow=oval;startFill=0;endArrow=block;endFill=0;fontSize=12;" edge="1" parent="1" source="9Z9RfsvURIoyUKrnc7gD-46" target="9Z9RfsvURIoyUKrnc7gD-45">
          <mxGeometry relative="1" as="geometry" />
        </mxCell>
        <mxCell id="9Z9RfsvURIoyUKrnc7gD-46" value="content-secondary" style="rounded=0;whiteSpace=wrap;html=1;align=left;verticalAlign=top;fillColor=#d5e8d4;strokeColor=#82b366;" vertex="1" parent="1">
          <mxGeometry x="-700" y="220" width="150" height="40" as="geometry" />
        </mxCell>
        <mxCell id="9Z9RfsvURIoyUKrnc7gD-56" style="edgeStyle=none;rounded=0;orthogonalLoop=1;jettySize=auto;html=1;exitX=1;exitY=0.5;exitDx=0;exitDy=0;entryX=0;entryY=0;entryDx=0;entryDy=0;startArrow=oval;startFill=0;endArrow=block;endFill=0;fontSize=12;" edge="1" parent="1" source="9Z9RfsvURIoyUKrnc7gD-53" target="9Z9RfsvURIoyUKrnc7gD-37">
          <mxGeometry relative="1" as="geometry" />
        </mxCell>
        <mxCell id="9Z9RfsvURIoyUKrnc7gD-53" value="partials/site-head" style="rounded=0;whiteSpace=wrap;html=1;align=left;verticalAlign=top;" vertex="1" parent="1">
          <mxGeometry x="-685" y="60" width="120" height="40" as="geometry" />
        </mxCell>
        <mxCell id="9Z9RfsvURIoyUKrnc7gD-55" style="edgeStyle=none;rounded=0;orthogonalLoop=1;jettySize=auto;html=1;exitX=1;exitY=0.5;exitDx=0;exitDy=0;entryX=0;entryY=1;entryDx=0;entryDy=0;startArrow=oval;startFill=0;endArrow=block;endFill=0;fontSize=12;" edge="1" parent="1" source="9Z9RfsvURIoyUKrnc7gD-54" target="9Z9RfsvURIoyUKrnc7gD-37">
          <mxGeometry relative="1" as="geometry" />
        </mxCell>
        <mxCell id="9Z9RfsvURIoyUKrnc7gD-54" value="partials/site-tail" style="rounded=0;whiteSpace=wrap;html=1;align=left;verticalAlign=top;" vertex="1" parent="1">
          <mxGeometry x="-685" y="300" width="120" height="40" as="geometry" />
        </mxCell>
        <mxCell id="9Z9RfsvURIoyUKrnc7gD-68" value="template page" style="rounded=0;whiteSpace=wrap;html=1;align=left;verticalAlign=top;" vertex="1" parent="1">
          <mxGeometry x="575" y="240" width="180" height="190" as="geometry" />
        </mxCell>
        <mxCell id="9Z9RfsvURIoyUKrnc7gD-69" style="edgeStyle=none;rounded=0;orthogonalLoop=1;jettySize=auto;html=1;exitX=1;exitY=0.5;exitDx=0;exitDy=0;startArrow=oval;startFill=0;endArrow=block;endFill=0;fontSize=12;" edge="1" source="9Z9RfsvURIoyUKrnc7gD-70" target="9Z9RfsvURIoyUKrnc7gD-71" parent="1">
          <mxGeometry relative="1" as="geometry" />
        </mxCell>
        <mxCell id="9Z9RfsvURIoyUKrnc7gD-70" value="content-primary&lt;br&gt;&lt;br&gt;- main menu&lt;br&gt;- background cover image&lt;br&gt;-&amp;nbsp;very latest post&lt;br&gt;- next 3 latest posts&lt;br&gt;- read more link" style="rounded=0;whiteSpace=wrap;html=1;align=left;verticalAlign=top;fillColor=#ffe6cc;strokeColor=#d79b00;" vertex="1" parent="1">
          <mxGeometry x="380" y="220" width="160" height="120" as="geometry" />
        </mxCell>
        <mxCell id="9Z9RfsvURIoyUKrnc7gD-71" value="mount-point-primary" style="whiteSpace=wrap;html=1;rounded=0;align=left;verticalAlign=top;strokeColor=#d79b00;fillColor=#ffe6cc;" vertex="1" parent="1">
          <mxGeometry x="600" y="280" width="130" height="40" as="geometry" />
        </mxCell>
        <mxCell id="9Z9RfsvURIoyUKrnc7gD-72" value="mount-point-secondary" style="whiteSpace=wrap;html=1;rounded=0;align=left;verticalAlign=top;strokeColor=#82b366;fillColor=#d5e8d4;" vertex="1" parent="1">
          <mxGeometry x="600" y="340" width="130" height="50" as="geometry" />
        </mxCell>
        <mxCell id="9Z9RfsvURIoyUKrnc7gD-73" style="edgeStyle=none;rounded=0;orthogonalLoop=1;jettySize=auto;html=1;exitX=1;exitY=0.5;exitDx=0;exitDy=0;startArrow=oval;startFill=0;endArrow=block;endFill=0;fontSize=12;" edge="1" source="9Z9RfsvURIoyUKrnc7gD-74" target="9Z9RfsvURIoyUKrnc7gD-72" parent="1">
          <mxGeometry relative="1" as="geometry" />
        </mxCell>
        <mxCell id="9Z9RfsvURIoyUKrnc7gD-74" value="content-secondary&lt;br&gt;&lt;br&gt;- tagline text&lt;br&gt;- latest 3 post (another content type)&lt;br&gt;- read more link" style="rounded=0;whiteSpace=wrap;html=1;align=left;verticalAlign=top;fillColor=#d5e8d4;strokeColor=#82b366;" vertex="1" parent="1">
          <mxGeometry x="385" y="350" width="150" height="110" as="geometry" />
        </mxCell>
        <mxCell id="9Z9RfsvURIoyUKrnc7gD-98" value="section page" style="rounded=0;whiteSpace=wrap;html=1;glass=0;sketch=0;fontSize=12;align=left;fillColor=#647687;strokeColor=#314354;fontColor=#ffffff;verticalAlign=top;fontStyle=1" vertex="1" parent="1">
          <mxGeometry x="360" y="650" width="420" height="350" as="geometry" />
        </mxCell>
        <mxCell id="9Z9RfsvURIoyUKrnc7gD-99" value="template page" style="rounded=0;whiteSpace=wrap;html=1;align=left;verticalAlign=top;" vertex="1" parent="1">
          <mxGeometry x="575" y="720" width="180" height="220" as="geometry" />
        </mxCell>
        <mxCell id="9Z9RfsvURIoyUKrnc7gD-100" style="edgeStyle=none;rounded=0;orthogonalLoop=1;jettySize=auto;html=1;exitX=1;exitY=0.5;exitDx=0;exitDy=0;startArrow=oval;startFill=0;endArrow=block;endFill=0;fontSize=12;" edge="1" source="9Z9RfsvURIoyUKrnc7gD-101" target="9Z9RfsvURIoyUKrnc7gD-102" parent="1">
          <mxGeometry relative="1" as="geometry" />
        </mxCell>
        <mxCell id="9Z9RfsvURIoyUKrnc7gD-101" value="content-primary&lt;br&gt;&lt;br&gt;- section cover image&lt;br&gt;- section description" style="rounded=0;whiteSpace=wrap;html=1;align=left;verticalAlign=top;fillColor=#ffe6cc;strokeColor=#d79b00;" vertex="1" parent="1">
          <mxGeometry x="380" y="700" width="160" height="80" as="geometry" />
        </mxCell>
        <mxCell id="9Z9RfsvURIoyUKrnc7gD-102" value="mount-point-primary" style="whiteSpace=wrap;html=1;rounded=0;align=left;verticalAlign=top;strokeColor=#d79b00;fillColor=#ffe6cc;" vertex="1" parent="1">
          <mxGeometry x="600" y="760" width="130" height="40" as="geometry" />
        </mxCell>
        <mxCell id="9Z9RfsvURIoyUKrnc7gD-103" value="mount-point-secondary" style="whiteSpace=wrap;html=1;rounded=0;align=left;verticalAlign=top;strokeColor=#82b366;fillColor=#d5e8d4;" vertex="1" parent="1">
          <mxGeometry x="600" y="820" width="130" height="50" as="geometry" />
        </mxCell>
        <mxCell id="9Z9RfsvURIoyUKrnc7gD-104" style="edgeStyle=none;rounded=0;orthogonalLoop=1;jettySize=auto;html=1;exitX=1;exitY=0.5;exitDx=0;exitDy=0;startArrow=oval;startFill=0;endArrow=block;endFill=0;fontSize=12;" edge="1" source="9Z9RfsvURIoyUKrnc7gD-105" target="9Z9RfsvURIoyUKrnc7gD-103" parent="1">
          <mxGeometry relative="1" as="geometry" />
        </mxCell>
        <mxCell id="9Z9RfsvURIoyUKrnc7gD-105" value="content-secondary&lt;br&gt;&lt;br&gt;- last 12 post (sub section?)&lt;br&gt;- pagination" style="rounded=0;whiteSpace=wrap;html=1;align=left;verticalAlign=top;fillColor=#d5e8d4;strokeColor=#82b366;" vertex="1" parent="1">
          <mxGeometry x="380" y="785" width="155" height="80" as="geometry" />
        </mxCell>
        <mxCell id="9Z9RfsvURIoyUKrnc7gD-107" value="" style="edgeStyle=entityRelationEdgeStyle;rounded=0;orthogonalLoop=1;jettySize=auto;html=1;startArrow=oval;startFill=0;endArrow=block;endFill=0;fontSize=12;" edge="1" parent="1" source="9Z9RfsvURIoyUKrnc7gD-106" target="9Z9RfsvURIoyUKrnc7gD-70">
          <mxGeometry relative="1" as="geometry" />
        </mxCell>
        <mxCell id="9Z9RfsvURIoyUKrnc7gD-106" value="partials/menu-primary&lt;br&gt;(site menu)" style="rounded=0;whiteSpace=wrap;html=1;align=left;verticalAlign=top;strokeColor=#FF0080;" vertex="1" parent="1">
          <mxGeometry x="48" y="166" width="140" height="40" as="geometry" />
        </mxCell>
        <mxCell id="9Z9RfsvURIoyUKrnc7gD-108" value="mount-point-tertiary" style="rounded=0;whiteSpace=wrap;html=1;glass=0;sketch=0;fontSize=12;align=left;fillColor=#e1d5e7;strokeColor=#9673a6;" vertex="1" parent="1">
          <mxGeometry x="-460" y="260" width="130" height="20" as="geometry" />
        </mxCell>
        <mxCell id="9Z9RfsvURIoyUKrnc7gD-109" value="mount-point-tertiary" style="rounded=0;whiteSpace=wrap;html=1;glass=0;sketch=0;fontSize=12;align=left;fillColor=#e1d5e7;strokeColor=#9673a6;" vertex="1" parent="1">
          <mxGeometry x="600" y="880" width="130" height="20" as="geometry" />
        </mxCell>
        <mxCell id="9Z9RfsvURIoyUKrnc7gD-111" style="edgeStyle=none;rounded=0;orthogonalLoop=1;jettySize=auto;html=1;exitX=1;exitY=0.5;exitDx=0;exitDy=0;entryX=0;entryY=0.75;entryDx=0;entryDy=0;startArrow=oval;startFill=0;endArrow=block;endFill=0;fontSize=12;" edge="1" parent="1" source="9Z9RfsvURIoyUKrnc7gD-110" target="9Z9RfsvURIoyUKrnc7gD-109">
          <mxGeometry relative="1" as="geometry" />
        </mxCell>
        <mxCell id="9Z9RfsvURIoyUKrnc7gD-110" value="content-tertiary&lt;br&gt;&lt;br&gt;- advertising&lt;br&gt;- random list from other type" style="rounded=0;whiteSpace=wrap;html=1;align=left;verticalAlign=top;fillColor=#e1d5e7;strokeColor=#9673a6;" vertex="1" parent="1">
          <mxGeometry x="380" y="880" width="165" height="80" as="geometry" />
        </mxCell>
        <mxCell id="9Z9RfsvURIoyUKrnc7gD-115" style="edgeStyle=entityRelationEdgeStyle;rounded=0;orthogonalLoop=1;jettySize=auto;html=1;exitX=1;exitY=0.5;exitDx=0;exitDy=0;entryX=0;entryY=0.5;entryDx=0;entryDy=0;startArrow=oval;startFill=0;endArrow=block;endFill=0;fontSize=12;" edge="1" parent="1" source="9Z9RfsvURIoyUKrnc7gD-114" target="9Z9RfsvURIoyUKrnc7gD-70">
          <mxGeometry relative="1" as="geometry" />
        </mxCell>
        <mxCell id="9Z9RfsvURIoyUKrnc7gD-114" value="partials/home-cover&lt;br&gt;&lt;br&gt;(code to get 4 latest post)" style="rounded=0;whiteSpace=wrap;html=1;align=left;verticalAlign=top;" vertex="1" parent="1">
          <mxGeometry x="80" y="275" width="160" height="70" as="geometry" />
        </mxCell>
        <mxCell id="9Z9RfsvURIoyUKrnc7gD-117" style="edgeStyle=entityRelationEdgeStyle;rounded=0;orthogonalLoop=1;jettySize=auto;html=1;exitX=1;exitY=0.5;exitDx=0;exitDy=0;entryX=0.013;entryY=0.427;entryDx=0;entryDy=0;entryPerimeter=0;startArrow=oval;startFill=0;endArrow=block;endFill=0;fontSize=12;" edge="1" parent="1" source="9Z9RfsvURIoyUKrnc7gD-116" target="9Z9RfsvURIoyUKrnc7gD-74">
          <mxGeometry relative="1" as="geometry" />
        </mxCell>
        <mxCell id="9Z9RfsvURIoyUKrnc7gD-116" value="partials/list-group-3&lt;br&gt;&lt;br&gt;(code to get 3 latest post)" style="rounded=0;whiteSpace=wrap;html=1;align=left;verticalAlign=top;" vertex="1" parent="1">
          <mxGeometry x="80" y="390" width="160" height="80" as="geometry" />
        </mxCell>
        <mxCell id="9Z9RfsvURIoyUKrnc7gD-120" style="edgeStyle=none;rounded=0;orthogonalLoop=1;jettySize=auto;html=1;exitX=1;exitY=0.5;exitDx=0;exitDy=0;startArrow=oval;startFill=0;endArrow=block;endFill=0;fontSize=12;" edge="1" parent="1" source="9Z9RfsvURIoyUKrnc7gD-118" target="9Z9RfsvURIoyUKrnc7gD-119">
          <mxGeometry relative="1" as="geometry" />
        </mxCell>
        <mxCell id="9Z9RfsvURIoyUKrnc7gD-118" value="content-tertiary&lt;br&gt;&lt;br&gt;- list 6 post (another type)" style="rounded=0;whiteSpace=wrap;html=1;align=left;verticalAlign=top;fillColor=#e1d5e7;strokeColor=#9673a6;" vertex="1" parent="1">
          <mxGeometry x="385" y="470" width="165" height="60" as="geometry" />
        </mxCell>
        <mxCell id="9Z9RfsvURIoyUKrnc7gD-119" value="mount-point-tertiary" style="rounded=0;whiteSpace=wrap;html=1;glass=0;sketch=0;fontSize=12;align=left;fillColor=#e1d5e7;strokeColor=#9673a6;" vertex="1" parent="1">
          <mxGeometry x="600" y="400" width="130" height="20" as="geometry" />
        </mxCell>
        <mxCell id="9Z9RfsvURIoyUKrnc7gD-122" style="edgeStyle=entityRelationEdgeStyle;rounded=0;orthogonalLoop=1;jettySize=auto;html=1;exitX=1;exitY=0.5;exitDx=0;exitDy=0;startArrow=oval;startFill=0;endArrow=block;endFill=0;fontSize=12;" edge="1" parent="1" source="9Z9RfsvURIoyUKrnc7gD-121" target="9Z9RfsvURIoyUKrnc7gD-118">
          <mxGeometry relative="1" as="geometry" />
        </mxCell>
        <mxCell id="9Z9RfsvURIoyUKrnc7gD-121" value="partials/list-group-6&lt;br&gt;&lt;br&gt;(code to get 6 latest post)" style="rounded=0;whiteSpace=wrap;html=1;align=left;verticalAlign=top;" vertex="1" parent="1">
          <mxGeometry x="78.5" y="512" width="161.5" height="80" as="geometry" />
        </mxCell>
        <mxCell id="9Z9RfsvURIoyUKrnc7gD-125" style="edgeStyle=entityRelationEdgeStyle;rounded=0;orthogonalLoop=1;jettySize=auto;html=1;exitX=1;exitY=0.75;exitDx=0;exitDy=0;startArrow=oval;startFill=0;endArrow=block;endFill=0;fontSize=12;" edge="1" parent="1" source="9Z9RfsvURIoyUKrnc7gD-124" target="9Z9RfsvURIoyUKrnc7gD-114">
          <mxGeometry relative="1" as="geometry" />
        </mxCell>
        <mxCell id="9Z9RfsvURIoyUKrnc7gD-128" style="edgeStyle=entityRelationEdgeStyle;rounded=0;orthogonalLoop=1;jettySize=auto;html=1;exitX=1;exitY=0.75;exitDx=0;exitDy=0;entryX=0;entryY=0.5;entryDx=0;entryDy=0;startArrow=oval;startFill=0;endArrow=block;endFill=0;fontSize=12;" edge="1" parent="1" source="9Z9RfsvURIoyUKrnc7gD-124" target="9Z9RfsvURIoyUKrnc7gD-127">
          <mxGeometry relative="1" as="geometry" />
        </mxCell>
        <mxCell id="9Z9RfsvURIoyUKrnc7gD-154" style="edgeStyle=entityRelationEdgeStyle;rounded=0;orthogonalLoop=1;jettySize=auto;html=1;exitX=1;exitY=0.75;exitDx=0;exitDy=0;startArrow=oval;startFill=0;endArrow=block;endFill=0;fontSize=12;entryX=0;entryY=0.5;entryDx=0;entryDy=0;" edge="1" parent="1" source="9Z9RfsvURIoyUKrnc7gD-124" target="9Z9RfsvURIoyUKrnc7gD-215">
          <mxGeometry relative="1" as="geometry">
            <mxPoint x="190" y="1210" as="targetPoint" />
          </mxGeometry>
        </mxCell>
        <mxCell id="9Z9RfsvURIoyUKrnc7gD-124" value="&lt;h1&gt;cover-page&lt;/h1&gt;&lt;p&gt;code to get cover image from resources, link...&lt;/p&gt;&lt;p&gt;fallback to default iamge&lt;/p&gt;&lt;p&gt;get big size from config&lt;/p&gt;" style="text;html=1;strokeColor=none;fillColor=none;spacing=5;spacingTop=-20;whiteSpace=wrap;overflow=hidden;rounded=0;" vertex="1" parent="1">
          <mxGeometry x="-531" y="566" width="190" height="160" as="geometry" />
        </mxCell>
        <mxCell id="9Z9RfsvURIoyUKrnc7gD-137" style="edgeStyle=entityRelationEdgeStyle;rounded=0;orthogonalLoop=1;jettySize=auto;html=1;exitX=1;exitY=0.5;exitDx=0;exitDy=0;startArrow=oval;startFill=0;endArrow=block;endFill=0;fontSize=12;" edge="1" parent="1" source="9Z9RfsvURIoyUKrnc7gD-127" target="9Z9RfsvURIoyUKrnc7gD-101">
          <mxGeometry relative="1" as="geometry" />
        </mxCell>
        <mxCell id="9Z9RfsvURIoyUKrnc7gD-127" value="partials/section-cover" style="rounded=0;whiteSpace=wrap;html=1;align=left;verticalAlign=top;" vertex="1" parent="1">
          <mxGeometry x="100" y="800" width="160" height="40" as="geometry" />
        </mxCell>
        <mxCell id="9Z9RfsvURIoyUKrnc7gD-133" style="edgeStyle=entityRelationEdgeStyle;rounded=0;orthogonalLoop=1;jettySize=auto;html=1;startArrow=oval;startFill=0;endArrow=block;endFill=0;fontSize=12;exitX=1;exitY=0.5;exitDx=0;exitDy=0;entryX=0;entryY=0.5;entryDx=0;entryDy=0;" edge="1" parent="1" source="9Z9RfsvURIoyUKrnc7gD-129" target="9Z9RfsvURIoyUKrnc7gD-199">
          <mxGeometry relative="1" as="geometry">
            <mxPoint x="-180" y="600" as="sourcePoint" />
            <mxPoint x="-140" y="675" as="targetPoint" />
          </mxGeometry>
        </mxCell>
        <mxCell id="9Z9RfsvURIoyUKrnc7gD-129" value="&lt;h1&gt;cover-post&lt;/h1&gt;&lt;p&gt;code to get cover image from resources, link, params...&lt;/p&gt;&lt;p&gt;fallback to default iamge&lt;/p&gt;&lt;p&gt;get small size from config&lt;/p&gt;" style="text;html=1;strokeColor=none;fillColor=none;spacing=5;spacingTop=-20;whiteSpace=wrap;overflow=hidden;rounded=0;" vertex="1" parent="1">
          <mxGeometry x="-859" y="515" width="190" height="140" as="geometry" />
        </mxCell>
        <mxCell id="9Z9RfsvURIoyUKrnc7gD-131" style="edgeStyle=entityRelationEdgeStyle;rounded=0;orthogonalLoop=1;jettySize=auto;html=1;entryX=0;entryY=0.5;entryDx=0;entryDy=0;startArrow=oval;startFill=0;endArrow=block;endFill=0;fontSize=12;exitX=1;exitY=0.5;exitDx=0;exitDy=0;" edge="1" parent="1" source="9Z9RfsvURIoyUKrnc7gD-197" target="9Z9RfsvURIoyUKrnc7gD-116">
          <mxGeometry relative="1" as="geometry">
            <mxPoint x="-86" y="527" as="sourcePoint" />
          </mxGeometry>
        </mxCell>
        <mxCell id="9Z9RfsvURIoyUKrnc7gD-132" style="edgeStyle=entityRelationEdgeStyle;rounded=0;orthogonalLoop=1;jettySize=auto;html=1;startArrow=oval;startFill=0;endArrow=block;endFill=0;fontSize=12;" edge="1" parent="1" source="9Z9RfsvURIoyUKrnc7gD-197" target="9Z9RfsvURIoyUKrnc7gD-121">
          <mxGeometry relative="1" as="geometry">
            <mxPoint x="-63" y="485" as="sourcePoint" />
          </mxGeometry>
        </mxCell>
        <mxCell id="9Z9RfsvURIoyUKrnc7gD-136" style="edgeStyle=entityRelationEdgeStyle;rounded=0;orthogonalLoop=1;jettySize=auto;html=1;startArrow=oval;startFill=0;endArrow=block;endFill=0;fontSize=12;entryX=0;entryY=0.5;entryDx=0;entryDy=0;" edge="1" parent="1" source="9Z9RfsvURIoyUKrnc7gD-197" target="9Z9RfsvURIoyUKrnc7gD-134">
          <mxGeometry relative="1" as="geometry">
            <mxPoint x="-20" y="697.5" as="sourcePoint" />
            <mxPoint x="80" y="920" as="targetPoint" />
          </mxGeometry>
        </mxCell>
        <mxCell id="9Z9RfsvURIoyUKrnc7gD-138" style="edgeStyle=entityRelationEdgeStyle;rounded=0;orthogonalLoop=1;jettySize=auto;html=1;exitX=1;exitY=0.5;exitDx=0;exitDy=0;startArrow=oval;startFill=0;endArrow=block;endFill=0;fontSize=12;" edge="1" parent="1" source="9Z9RfsvURIoyUKrnc7gD-134" target="9Z9RfsvURIoyUKrnc7gD-105">
          <mxGeometry relative="1" as="geometry" />
        </mxCell>
        <mxCell id="9Z9RfsvURIoyUKrnc7gD-134" value="partials/list-group-12&lt;br&gt;&lt;br&gt;(code to get 12 latest post)&lt;br&gt;subsection?&lt;br&gt;" style="rounded=0;whiteSpace=wrap;html=1;align=left;verticalAlign=top;" vertex="1" parent="1">
          <mxGeometry x="93" y="897" width="150" height="80" as="geometry" />
        </mxCell>
        <mxCell id="9Z9RfsvURIoyUKrnc7gD-142" style="edgeStyle=entityRelationEdgeStyle;rounded=0;orthogonalLoop=1;jettySize=auto;html=1;exitX=1;exitY=0.5;exitDx=0;exitDy=0;entryX=0;entryY=0.5;entryDx=0;entryDy=0;startArrow=oval;startFill=0;endArrow=block;endFill=0;fontSize=12;" edge="1" parent="1" source="9Z9RfsvURIoyUKrnc7gD-140" target="9Z9RfsvURIoyUKrnc7gD-101">
          <mxGeometry relative="1" as="geometry" />
        </mxCell>
        <mxCell id="9Z9RfsvURIoyUKrnc7gD-140" value="partials/menu-secondary&lt;br&gt;(section menu)" style="rounded=0;whiteSpace=wrap;html=1;align=left;verticalAlign=top;strokeColor=#FF0080;" vertex="1" parent="1">
          <mxGeometry x="80" y="680" width="140" height="40" as="geometry" />
        </mxCell>
        <mxCell id="9Z9RfsvURIoyUKrnc7gD-144" value="template page" style="rounded=0;whiteSpace=wrap;html=1;align=left;verticalAlign=top;" vertex="1" parent="1">
          <mxGeometry x="565" y="1160" width="180" height="220" as="geometry" />
        </mxCell>
        <mxCell id="9Z9RfsvURIoyUKrnc7gD-145" style="edgeStyle=none;rounded=0;orthogonalLoop=1;jettySize=auto;html=1;exitX=1;exitY=0.5;exitDx=0;exitDy=0;startArrow=oval;startFill=0;endArrow=block;endFill=0;fontSize=12;" edge="1" source="9Z9RfsvURIoyUKrnc7gD-146" target="9Z9RfsvURIoyUKrnc7gD-147" parent="1">
          <mxGeometry relative="1" as="geometry" />
        </mxCell>
        <mxCell id="9Z9RfsvURIoyUKrnc7gD-146" value="content-primary&lt;br&gt;&lt;br&gt;- single cover image&lt;br&gt;- title&lt;br&gt;- summary" style="rounded=0;whiteSpace=wrap;html=1;align=left;verticalAlign=top;fillColor=#ffe6cc;strokeColor=#d79b00;" vertex="1" parent="1">
          <mxGeometry x="367.5" y="1130" width="160" height="80" as="geometry" />
        </mxCell>
        <mxCell id="9Z9RfsvURIoyUKrnc7gD-147" value="mount-point-primary" style="whiteSpace=wrap;html=1;rounded=0;align=left;verticalAlign=top;strokeColor=#d79b00;fillColor=#ffe6cc;" vertex="1" parent="1">
          <mxGeometry x="590" y="1200" width="130" height="40" as="geometry" />
        </mxCell>
        <mxCell id="9Z9RfsvURIoyUKrnc7gD-148" value="mount-point-secondary" style="whiteSpace=wrap;html=1;rounded=0;align=left;verticalAlign=top;strokeColor=#82b366;fillColor=#d5e8d4;" vertex="1" parent="1">
          <mxGeometry x="590" y="1260" width="130" height="50" as="geometry" />
        </mxCell>
        <mxCell id="9Z9RfsvURIoyUKrnc7gD-149" style="edgeStyle=none;rounded=0;orthogonalLoop=1;jettySize=auto;html=1;exitX=1;exitY=0.5;exitDx=0;exitDy=0;startArrow=oval;startFill=0;endArrow=block;endFill=0;fontSize=12;" edge="1" source="9Z9RfsvURIoyUKrnc7gD-150" target="9Z9RfsvURIoyUKrnc7gD-148" parent="1">
          <mxGeometry relative="1" as="geometry" />
        </mxCell>
        <mxCell id="9Z9RfsvURIoyUKrnc7gD-150" value="content-secondary&lt;br&gt;&lt;br&gt;- post content" style="rounded=0;whiteSpace=wrap;html=1;align=left;verticalAlign=top;fillColor=#d5e8d4;strokeColor=#82b366;" vertex="1" parent="1">
          <mxGeometry x="372.5" y="1230" width="155" height="80" as="geometry" />
        </mxCell>
        <mxCell id="9Z9RfsvURIoyUKrnc7gD-151" value="mount-point-tertiary" style="rounded=0;whiteSpace=wrap;html=1;glass=0;sketch=0;fontSize=12;align=left;fillColor=#e1d5e7;strokeColor=#9673a6;" vertex="1" parent="1">
          <mxGeometry x="590" y="1320" width="130" height="20" as="geometry" />
        </mxCell>
        <mxCell id="9Z9RfsvURIoyUKrnc7gD-152" style="edgeStyle=none;rounded=0;orthogonalLoop=1;jettySize=auto;html=1;exitX=1;exitY=0.5;exitDx=0;exitDy=0;entryX=0;entryY=0.75;entryDx=0;entryDy=0;startArrow=oval;startFill=0;endArrow=block;endFill=0;fontSize=12;" edge="1" source="9Z9RfsvURIoyUKrnc7gD-153" target="9Z9RfsvURIoyUKrnc7gD-151" parent="1">
          <mxGeometry relative="1" as="geometry" />
        </mxCell>
        <mxCell id="9Z9RfsvURIoyUKrnc7gD-153" value="content-tertiary&lt;br&gt;&lt;br&gt;- post navigator&lt;br&gt;- tag, category&lt;br&gt;- relate post" style="rounded=0;whiteSpace=wrap;html=1;align=left;verticalAlign=top;fillColor=#e1d5e7;strokeColor=#9673a6;" vertex="1" parent="1">
          <mxGeometry x="370" y="1320" width="165" height="90" as="geometry" />
        </mxCell>
        <mxCell id="9Z9RfsvURIoyUKrnc7gD-156" style="edgeStyle=entityRelationEdgeStyle;rounded=0;orthogonalLoop=1;jettySize=auto;html=1;exitX=1;exitY=0.5;exitDx=0;exitDy=0;startArrow=oval;startFill=0;endArrow=block;endFill=0;fontSize=12;" edge="1" parent="1" source="9Z9RfsvURIoyUKrnc7gD-155" target="9Z9RfsvURIoyUKrnc7gD-150">
          <mxGeometry relative="1" as="geometry" />
        </mxCell>
        <mxCell id="9Z9RfsvURIoyUKrnc7gD-155" value="_default/_markup/render-[...]&lt;br&gt;&lt;br&gt;- image&lt;br&gt;- link&lt;br&gt;- heading" style="rounded=0;whiteSpace=wrap;html=1;align=left;verticalAlign=top;strokeColor=#3333FF;" vertex="1" parent="1">
          <mxGeometry x="97" y="1195" width="160" height="90" as="geometry" />
        </mxCell>
        <mxCell id="9Z9RfsvURIoyUKrnc7gD-158" style="edgeStyle=entityRelationEdgeStyle;rounded=0;orthogonalLoop=1;jettySize=auto;html=1;exitX=1;exitY=0.5;exitDx=0;exitDy=0;startArrow=oval;startFill=0;endArrow=block;endFill=0;fontSize=12;" edge="1" parent="1" source="9Z9RfsvURIoyUKrnc7gD-157" target="9Z9RfsvURIoyUKrnc7gD-153">
          <mxGeometry relative="1" as="geometry" />
        </mxCell>
        <mxCell id="9Z9RfsvURIoyUKrnc7gD-157" value="partials/relate&lt;br&gt;&lt;br&gt;- list related post" style="rounded=0;whiteSpace=wrap;html=1;align=left;verticalAlign=top;" vertex="1" parent="1">
          <mxGeometry x="97" y="1361" width="160" height="70" as="geometry" />
        </mxCell>
        <mxCell id="9Z9RfsvURIoyUKrnc7gD-160" value="about page" style="rounded=0;whiteSpace=wrap;html=1;glass=0;sketch=0;fontSize=12;align=left;fillColor=#647687;strokeColor=#314354;fontColor=#ffffff;verticalAlign=top;fontStyle=1" vertex="1" parent="1">
          <mxGeometry x="960" y="145" width="420" height="380" as="geometry" />
        </mxCell>
        <mxCell id="9Z9RfsvURIoyUKrnc7gD-161" value="template page" style="rounded=0;whiteSpace=wrap;html=1;align=left;verticalAlign=top;" vertex="1" parent="1">
          <mxGeometry x="1175" y="215" width="180" height="190" as="geometry" />
        </mxCell>
        <mxCell id="9Z9RfsvURIoyUKrnc7gD-162" style="edgeStyle=none;rounded=0;orthogonalLoop=1;jettySize=auto;html=1;exitX=1;exitY=0.5;exitDx=0;exitDy=0;startArrow=oval;startFill=0;endArrow=block;endFill=0;fontSize=12;" edge="1" source="9Z9RfsvURIoyUKrnc7gD-163" target="9Z9RfsvURIoyUKrnc7gD-164" parent="1">
          <mxGeometry relative="1" as="geometry" />
        </mxCell>
        <mxCell id="9Z9RfsvURIoyUKrnc7gD-163" value="content-primary&lt;br&gt;&lt;br&gt;- introduction&lt;br&gt;- history&lt;br&gt;- factory&lt;br&gt;- people&lt;br&gt;- testimonial" style="rounded=0;whiteSpace=wrap;html=1;align=left;verticalAlign=top;fillColor=#ffe6cc;strokeColor=#d79b00;" vertex="1" parent="1">
          <mxGeometry x="980" y="195" width="160" height="120" as="geometry" />
        </mxCell>
        <mxCell id="9Z9RfsvURIoyUKrnc7gD-164" value="mount-point-primary" style="whiteSpace=wrap;html=1;rounded=0;align=left;verticalAlign=top;strokeColor=#d79b00;fillColor=#ffe6cc;" vertex="1" parent="1">
          <mxGeometry x="1200" y="255" width="130" height="40" as="geometry" />
        </mxCell>
        <mxCell id="9Z9RfsvURIoyUKrnc7gD-165" value="mount-point-secondary" style="whiteSpace=wrap;html=1;rounded=0;align=left;verticalAlign=top;strokeColor=#82b366;fillColor=#d5e8d4;" vertex="1" parent="1">
          <mxGeometry x="1200" y="315" width="130" height="50" as="geometry" />
        </mxCell>
        <mxCell id="9Z9RfsvURIoyUKrnc7gD-166" style="edgeStyle=none;rounded=0;orthogonalLoop=1;jettySize=auto;html=1;exitX=1;exitY=0.5;exitDx=0;exitDy=0;startArrow=oval;startFill=0;endArrow=block;endFill=0;fontSize=12;" edge="1" source="9Z9RfsvURIoyUKrnc7gD-167" target="9Z9RfsvURIoyUKrnc7gD-165" parent="1">
          <mxGeometry relative="1" as="geometry" />
        </mxCell>
        <mxCell id="9Z9RfsvURIoyUKrnc7gD-167" value="content-secondary&lt;br&gt;&lt;br&gt;- products&lt;br&gt;- services&lt;br&gt;- providers/suppliers&lt;br&gt;- customers" style="rounded=0;whiteSpace=wrap;html=1;align=left;verticalAlign=top;fillColor=#d5e8d4;strokeColor=#82b366;" vertex="1" parent="1">
          <mxGeometry x="985" y="325" width="150" height="110" as="geometry" />
        </mxCell>
        <mxCell id="9Z9RfsvURIoyUKrnc7gD-168" style="edgeStyle=none;rounded=0;orthogonalLoop=1;jettySize=auto;html=1;exitX=1;exitY=0.5;exitDx=0;exitDy=0;startArrow=oval;startFill=0;endArrow=block;endFill=0;fontSize=12;" edge="1" source="9Z9RfsvURIoyUKrnc7gD-169" target="9Z9RfsvURIoyUKrnc7gD-170" parent="1">
          <mxGeometry relative="1" as="geometry" />
        </mxCell>
        <mxCell id="9Z9RfsvURIoyUKrnc7gD-169" value="content-tertiary&lt;br&gt;&lt;br&gt;- offers&lt;br&gt;- seller list" style="rounded=0;whiteSpace=wrap;html=1;align=left;verticalAlign=top;fillColor=#e1d5e7;strokeColor=#9673a6;" vertex="1" parent="1">
          <mxGeometry x="985" y="445" width="165" height="75" as="geometry" />
        </mxCell>
        <mxCell id="9Z9RfsvURIoyUKrnc7gD-170" value="mount-point-tertiary" style="rounded=0;whiteSpace=wrap;html=1;glass=0;sketch=0;fontSize=12;align=left;fillColor=#e1d5e7;strokeColor=#9673a6;" vertex="1" parent="1">
          <mxGeometry x="1200" y="375" width="130" height="20" as="geometry" />
        </mxCell>
        <mxCell id="9Z9RfsvURIoyUKrnc7gD-171" value="contact page" style="rounded=0;whiteSpace=wrap;html=1;glass=0;sketch=0;fontSize=12;align=left;fillColor=#647687;strokeColor=#314354;fontColor=#ffffff;verticalAlign=top;fontStyle=1" vertex="1" parent="1">
          <mxGeometry x="970" y="620" width="420" height="410" as="geometry" />
        </mxCell>
        <mxCell id="9Z9RfsvURIoyUKrnc7gD-172" value="template page" style="rounded=0;whiteSpace=wrap;html=1;align=left;verticalAlign=top;" vertex="1" parent="1">
          <mxGeometry x="1185" y="690" width="180" height="190" as="geometry" />
        </mxCell>
        <mxCell id="9Z9RfsvURIoyUKrnc7gD-173" style="edgeStyle=none;rounded=0;orthogonalLoop=1;jettySize=auto;html=1;exitX=1;exitY=0.5;exitDx=0;exitDy=0;startArrow=oval;startFill=0;endArrow=block;endFill=0;fontSize=12;" edge="1" source="9Z9RfsvURIoyUKrnc7gD-174" target="9Z9RfsvURIoyUKrnc7gD-175" parent="1">
          <mxGeometry relative="1" as="geometry" />
        </mxCell>
        <mxCell id="9Z9RfsvURIoyUKrnc7gD-174" value="content-primary&lt;br&gt;&lt;br&gt;- contact form&lt;br&gt;- map&lt;br&gt;- phone" style="rounded=0;whiteSpace=wrap;html=1;align=left;verticalAlign=top;fillColor=#ffe6cc;strokeColor=#d79b00;" vertex="1" parent="1">
          <mxGeometry x="990" y="670" width="160" height="120" as="geometry" />
        </mxCell>
        <mxCell id="9Z9RfsvURIoyUKrnc7gD-175" value="mount-point-primary" style="whiteSpace=wrap;html=1;rounded=0;align=left;verticalAlign=top;strokeColor=#d79b00;fillColor=#ffe6cc;" vertex="1" parent="1">
          <mxGeometry x="1210" y="730" width="130" height="40" as="geometry" />
        </mxCell>
        <mxCell id="9Z9RfsvURIoyUKrnc7gD-176" value="mount-point-secondary" style="whiteSpace=wrap;html=1;rounded=0;align=left;verticalAlign=top;strokeColor=#82b366;fillColor=#d5e8d4;" vertex="1" parent="1">
          <mxGeometry x="1210" y="790" width="130" height="50" as="geometry" />
        </mxCell>
        <mxCell id="9Z9RfsvURIoyUKrnc7gD-177" style="edgeStyle=none;rounded=0;orthogonalLoop=1;jettySize=auto;html=1;exitX=1;exitY=0.5;exitDx=0;exitDy=0;startArrow=oval;startFill=0;endArrow=block;endFill=0;fontSize=12;" edge="1" source="9Z9RfsvURIoyUKrnc7gD-178" target="9Z9RfsvURIoyUKrnc7gD-176" parent="1">
          <mxGeometry relative="1" as="geometry" />
        </mxCell>
        <mxCell id="9Z9RfsvURIoyUKrnc7gD-178" value="content-secondary&lt;br&gt;&lt;br&gt;- other contact: zalo, skype, viblo, messenger...&lt;br&gt;- social network: facebook, tweeter, instagram..." style="rounded=0;whiteSpace=wrap;html=1;align=left;verticalAlign=top;fillColor=#d5e8d4;strokeColor=#82b366;" vertex="1" parent="1">
          <mxGeometry x="995" y="800" width="150" height="110" as="geometry" />
        </mxCell>
        <mxCell id="9Z9RfsvURIoyUKrnc7gD-179" style="edgeStyle=none;rounded=0;orthogonalLoop=1;jettySize=auto;html=1;exitX=1;exitY=0.5;exitDx=0;exitDy=0;startArrow=oval;startFill=0;endArrow=block;endFill=0;fontSize=12;" edge="1" source="9Z9RfsvURIoyUKrnc7gD-180" target="9Z9RfsvURIoyUKrnc7gD-181" parent="1">
          <mxGeometry relative="1" as="geometry" />
        </mxCell>
        <mxCell id="9Z9RfsvURIoyUKrnc7gD-180" value="content-tertiary&lt;br&gt;&lt;br&gt;- ads" style="rounded=0;whiteSpace=wrap;html=1;align=left;verticalAlign=top;fillColor=#e1d5e7;strokeColor=#9673a6;" vertex="1" parent="1">
          <mxGeometry x="995" y="920" width="165" height="75" as="geometry" />
        </mxCell>
        <mxCell id="9Z9RfsvURIoyUKrnc7gD-181" value="mount-point-tertiary" style="rounded=0;whiteSpace=wrap;html=1;glass=0;sketch=0;fontSize=12;align=left;fillColor=#e1d5e7;strokeColor=#9673a6;" vertex="1" parent="1">
          <mxGeometry x="1210" y="850" width="130" height="20" as="geometry" />
        </mxCell>
        <mxCell id="9Z9RfsvURIoyUKrnc7gD-214" style="edgeStyle=entityRelationEdgeStyle;rounded=0;orthogonalLoop=1;jettySize=auto;html=1;exitX=1;exitY=0.5;exitDx=0;exitDy=0;entryX=0;entryY=0.5;entryDx=0;entryDy=0;startArrow=oval;startFill=0;endArrow=block;endFill=0;fontSize=12;" edge="1" parent="1" source="9Z9RfsvURIoyUKrnc7gD-197" target="9Z9RfsvURIoyUKrnc7gD-157">
          <mxGeometry relative="1" as="geometry">
            <mxPoint x="17" y="1280" as="sourcePoint" />
          </mxGeometry>
        </mxCell>
        <mxCell id="9Z9RfsvURIoyUKrnc7gD-196" value="" style="shape=table;html=1;whiteSpace=wrap;startSize=0;container=1;collapsible=0;childLayout=tableLayout;" vertex="1" parent="1">
          <mxGeometry x="-545" y="900" width="204" height="160.14285714285734" as="geometry" />
        </mxCell>
        <mxCell id="9Z9RfsvURIoyUKrnc7gD-197" value="" style="shape=partialRectangle;html=1;whiteSpace=wrap;collapsible=0;dropTarget=0;pointerEvents=0;fillColor=none;top=0;left=0;bottom=0;right=0;points=[[0,0.5],[1,0.5]];portConstraint=eastwest;" vertex="1" parent="9Z9RfsvURIoyUKrnc7gD-196">
          <mxGeometry width="204" height="40" as="geometry" />
        </mxCell>
        <mxCell id="9Z9RfsvURIoyUKrnc7gD-198" value="post (card)" style="shape=partialRectangle;html=1;whiteSpace=wrap;connectable=0;overflow=hidden;fillColor=#dae8fc;top=0;left=0;bottom=0;right=0;perimeterSpacing=0;strokeWidth=2;shadow=1;sketch=0;" vertex="1" parent="9Z9RfsvURIoyUKrnc7gD-197">
          <mxGeometry width="204" height="40" as="geometry" />
        </mxCell>
        <mxCell id="9Z9RfsvURIoyUKrnc7gD-199" value="" style="shape=partialRectangle;html=1;whiteSpace=wrap;collapsible=0;dropTarget=0;pointerEvents=0;fillColor=none;top=0;left=0;bottom=0;right=0;points=[[0,0.5],[1,0.5]];portConstraint=eastwest;" vertex="1" parent="9Z9RfsvURIoyUKrnc7gD-196">
          <mxGeometry y="40" width="204" height="40" as="geometry" />
        </mxCell>
        <mxCell id="9Z9RfsvURIoyUKrnc7gD-200" value="cover image" style="shape=partialRectangle;html=1;whiteSpace=wrap;connectable=0;overflow=hidden;fillColor=none;top=0;left=0;bottom=0;right=0;" vertex="1" parent="9Z9RfsvURIoyUKrnc7gD-199">
          <mxGeometry width="204" height="40" as="geometry" />
        </mxCell>
        <mxCell id="9Z9RfsvURIoyUKrnc7gD-201" value="" style="shape=partialRectangle;html=1;whiteSpace=wrap;collapsible=0;dropTarget=0;pointerEvents=0;fillColor=none;top=0;left=0;bottom=0;right=0;points=[[0,0.5],[1,0.5]];portConstraint=eastwest;" vertex="1" parent="9Z9RfsvURIoyUKrnc7gD-196">
          <mxGeometry y="80" width="204" height="40" as="geometry" />
        </mxCell>
        <mxCell id="9Z9RfsvURIoyUKrnc7gD-202" value="title (link)" style="shape=partialRectangle;html=1;whiteSpace=wrap;connectable=0;overflow=hidden;fillColor=none;top=0;left=0;bottom=0;right=0;" vertex="1" parent="9Z9RfsvURIoyUKrnc7gD-201">
          <mxGeometry width="204" height="40" as="geometry" />
        </mxCell>
        <mxCell id="9Z9RfsvURIoyUKrnc7gD-203" value="" style="shape=partialRectangle;html=1;whiteSpace=wrap;collapsible=0;dropTarget=0;pointerEvents=0;fillColor=none;top=0;left=0;bottom=0;right=0;points=[[0,0.5],[1,0.5]];portConstraint=eastwest;" vertex="1" parent="9Z9RfsvURIoyUKrnc7gD-196">
          <mxGeometry y="120" width="204" height="40" as="geometry" />
        </mxCell>
        <mxCell id="9Z9RfsvURIoyUKrnc7gD-204" value="summary" style="shape=partialRectangle;html=1;whiteSpace=wrap;connectable=0;overflow=hidden;fillColor=none;top=0;left=0;bottom=0;right=0;" vertex="1" parent="9Z9RfsvURIoyUKrnc7gD-203">
          <mxGeometry width="204" height="40" as="geometry" />
        </mxCell>
        <mxCell id="9Z9RfsvURIoyUKrnc7gD-216" style="edgeStyle=entityRelationEdgeStyle;rounded=0;orthogonalLoop=1;jettySize=auto;html=1;exitX=1;exitY=0.5;exitDx=0;exitDy=0;entryX=0;entryY=0.5;entryDx=0;entryDy=0;startArrow=oval;startFill=0;endArrow=block;endFill=0;fontSize=12;" edge="1" parent="1" source="9Z9RfsvURIoyUKrnc7gD-215" target="9Z9RfsvURIoyUKrnc7gD-146">
          <mxGeometry relative="1" as="geometry" />
        </mxCell>
        <mxCell id="9Z9RfsvURIoyUKrnc7gD-215" value="partials/section-cover&lt;br&gt;" style="rounded=0;whiteSpace=wrap;html=1;align=left;verticalAlign=top;" vertex="1" parent="1">
          <mxGeometry x="93" y="1060.14" width="160" height="44" as="geometry" />
        </mxCell>
      </root>
    </mxGraphModel>
  </diagram>
</mxfile>
